<svg id="Layer_1" data-name="Layer 1" xmlns="http://www.w3.org/2000/svg" viewBox="0 0 103.81 98.27"><title>table_circle_6</title><path class="cls-1" d="M305.86,66h-24.7V54.28S282.56,42,293.4,42s12.47,12,12.47,12V66Z" transform="translate(-241.74 -41.54)"/><path class="cls-1" d="M269.54,74l-7.63,23.49-11.19-3.64s-11.2-5.11-7.85-15.41,15.26-8.15,15.26-8.15Z" transform="translate(-241.74 -41.54)"/><path class="cls-1" d="M265.78,110.3l20,14.52-6.92,9.52s-8.32,9.07-17.09,2.71-3-17-3-17Z" transform="translate(-241.74 -41.54)"/><path class="cls-1" d="M302.49,123.9l20-14.52,6.92,9.52s6.06,10.72-2.71,17.09-17.14-2.38-17.14-2.38Z" transform="translate(-241.74 -41.54)"/><path class="cls-1" d="M325.44,99l-7.63-23.49L329,71.87s12.07-2.45,15.41,7.85-7.56,15.56-7.56,15.56Z" transform="translate(-241.74 -41.54)"/><circle class="cls-1" cx="51.78" cy="53.36" r="28.86"/></svg>
