<svg id="Layer_1" data-name="Layer 1" xmlns="http://www.w3.org/2000/svg" viewBox="0 0 147.68 147.68"><title>table_circle_8</title><circle class="cls-1" cx="73.84" cy="73.84" r="49.34"/><path class="cls-1" d="M127.92,46.5h-24.7V34.73s1.4-12.23,12.23-12.23,12.47,12,12.47,12v12Z" transform="translate(-41.73 -22)"/><path class="cls-1" d="M103.22,145.18h24.7v11.77s-1.4,12.23-12.23,12.23-12.47-12-12.47-12v-12Z" transform="translate(-41.73 -22)"/><path class="cls-1" d="M164.91,108.19V83.49h11.77s12.23,1.4,12.23,12.23-12,12.47-12,12.47h-12Z" transform="translate(-41.73 -22)"/><path class="cls-1" d="M66.23,83.49v24.7H54.46S42.23,106.79,42.23,96s12-12.47,12-12.47h12Z" transform="translate(-41.73 -22)"/><path class="cls-1" d="M88,53.69L70.51,71.16l-8.32-8.32s-7.66-9.64,0-17.3,17.3-.33,17.3-0.33Z" transform="translate(-41.73 -22)"/><path class="cls-1" d="M160.95,71.24L143.48,53.77l8.32-8.32s9.64-7.66,17.3,0,0.33,17.3.33,17.3Z" transform="translate(-41.73 -22)"/><path class="cls-1" d="M143.41,138.34l17.46-17.46,8.32,8.32s7.66,9.64,0,17.3-17.3.33-17.3,0.33Z" transform="translate(-41.73 -22)"/><path class="cls-1" d="M70.43,120.87L87.9,138.34l-8.32,8.32s-9.64,7.66-17.3,0-0.33-17.3-.33-17.3Z" transform="translate(-41.73 -22)"/></svg>
